<svg
  t="1617982966331"
  class="icon"
  viewBox="0 0 1024 1024"
  version="1.1"
  xmlns="http://www.w3.org/2000/svg"
  p-id="2161"
  width="200"
  height="200"
>
  <path
    d="M580.266667 469.333333h-51.2a17.066667 17.066667 0 0 1-17.066667-17.066666V426.666667a128 128 0 0 1 128-128h68.266667c9.386667 0 17.066667 7.68 17.066666 17.066666v51.2a17.066667 17.066667 0 0 1-17.066666 17.066667H640a42.666667 42.666667 0 0 0-42.666667 42.666667v25.6a17.066667 17.066667 0 0 1-17.066666 17.066666zM512 853.333333v-256h-68.266667a17.066667 17.066667 0 0 1-17.066666-17.066666v-51.2c0-9.386667 7.68-17.066667 17.066666-17.066667h264.533334c9.386667 0 17.066667 7.68 17.066666 17.066667v51.2a17.066667 17.066667 0 0 1-17.066666 17.066666H597.333333v256h85.333334a170.666667 170.666667 0 0 0 170.666666-170.666666V341.333333a170.666667 170.666667 0 0 0-170.666666-170.666666H341.333333a170.666667 170.666667 0 0 0-170.666666 170.666666v341.333334a170.666667 170.666667 0 0 0 170.666666 170.666666h170.666667zM341.333333 85.333333h341.333334a256 256 0 0 1 256 256v341.333334a256 256 0 0 1-256 256H341.333333a256 256 0 0 1-256-256V341.333333a256 256 0 0 1 256-256z"
    p-id="2162"
  >
  </path>
</svg>